<?xml version="1.0" encoding="UTF-8"?>
<!DOCTYPE svg PUBLIC "-//W3C//DTD SVG 1.1//EN" "http://www.w3.org/Graphics/SVG/1.1/DTD/svg11.dtd">
<!-- Creator: CorelDRAW -->
<svg xmlns="http://www.w3.org/2000/svg" xml:space="preserve" width="198px" height="39px" version="1.1" style="shape-rendering:geometricPrecision; text-rendering:geometricPrecision; image-rendering:optimizeQuality; fill-rule:evenodd; clip-rule:evenodd"
viewBox="0 0 180.38 35.51"
 xmlns:xlink="http://www.w3.org/1999/xlink"
 xmlns:xodm="http://www.corel.com/coreldraw/odm/2003">
 <defs>
  <style type="text/css">
   <![CDATA[
    .fil1 {fill:#FEFEFE}
    .fil0 {fill:#F58634}
   ]]>
  </style>
 </defs>
 <g id="Plan_x0020_1">
  <metadata id="CorelCorpID_0Corel-Layer"/>
  <path class="fil0" d="M87.78 9.09l0.82 0 1.57 0 0.83 0 0 11.6 8.55 0 0 -11.6 0.83 0 1.57 0 0.82 0 0 26.42 -0.82 0 -1.57 0 -0.83 0 0 -13.99 -8.55 0 0 13.99 -0.83 0 -1.57 0 -0.82 0 0 -26.42zm84.68 10.66l-2.61 10.7 6.38 0 -2.62 -10.7 -1.15 0zm-2.82 11.53l-1.03 4.23 -0.83 0 -0.03 0 -0.83 0 4.86 -19.85 0.82 0 2.1 0 0.83 0 4.85 19.85 -0.82 0 -1.27 0 -0.82 0 -1.04 -4.23 -6.79 0zm-8.16 -15.62c2.43,0 4.61,1.36 6.07,3.49l-0.82 0 -0.4 0 -0.83 0c-1,-1.37 -2.33,-2.25 -3.81,-2.39 -7.2,0.61 -7.2,17.04 0,17.65 1.48,-0.14 2.8,-1.02 3.81,-2.38l0.83 0 0.4 0 0.82 0c-1.46,2.13 -3.64,3.48 -6.07,3.48 -0.14,0 -0.28,-0.01 -0.42,-0.01 -0.13,0 -0.27,0.01 -0.4,0.01 -10.61,0 -9.75,-19.85 0,-19.85 0.14,0 0.27,0.01 0.41,0.02 0.14,-0.01 0.27,-0.02 0.41,-0.02zm-10.66 0l0.83 0 0 0.84 -0.83 0 -5.8 0 0 8.22 4.95 0 0.82 0 0 0.84 -0.82 0 -4.95 0 0 9.11 5.8 0 0.83 0 0 0.84 -0.83 0 -5.8 0 -0.82 0 -0.39 0 -0.27 0 -0.55 0 -0.28 0c-0.49,0 -0.9,-0.41 -0.9,-0.91l0 -18.03c0,-0.5 0.41,-0.91 0.9,-0.91l0.28 0 0.55 0 0.27 0 0.39 0 0.82 0 5.8 0zm-36.44 0c4.72,0 8.55,4.45 8.55,9.93 0,5.48 -3.83,9.92 -8.55,9.92 -0.14,0 -0.27,-0.01 -0.41,-0.01 -0.14,0 -0.27,0.01 -0.41,0.01 -4.72,0 -8.55,-4.44 -8.55,-9.92 0,-5.48 3.83,-9.93 8.55,-9.93 0.14,0 0.27,0.01 0.41,0.02 0.14,-0.01 0.27,-0.02 0.41,-0.02zm-0.41 19.32c-3.04,-0.34 -5.44,-4.42 -5.44,-9.39 0,-4.98 2.4,-9.06 5.44,-9.4 3.04,0.34 5.45,4.42 5.45,9.4 0,4.97 -2.41,9.05 -5.45,9.39zm19.65 -19.32l0.83 0c6.19,0 4.28,10.65 0.66,10.67l-1.44 0.06 5.02 9.12 -0.82 0 -2.52 0 -0.83 0 -5.02 -9.48 0.05 -0.46 3.54 -0.04c3.06,-0.25 3.86,-8.73 0.24,-9.12l-4.2 0.01 0 19.09 -0.83 0 -1.56 0 -0.83 0 0 -19.85 0.83 0 1.09 0 0.47 0 5.32 0z"/>
  <g id="_2524009623232">
   <g>
    <path class="fil1" d="M53.86 16.06l-1.35 -8.13c-1.06,0.01 -2.5,0.01 -3.23,-0.28 -1.83,-0.72 -2.15,-2.01 -2.14,-2.65 0.02,-1.17 1.79,-4.65 8.98,-3.16 0.57,0.05 1.42,-0.18 2.18,-0.42 2.18,-0.68 5.18,-2.61 7.59,-0.36 1.45,1.35 2.06,3.99 0.32,5.43 -0.74,0.62 -3.19,-0.23 -4.27,0.29l1.86 7.65c-3.2,1.26 -6.51,1.84 -9.94,1.63z"/>
    <path class="fil1" d="M55.52 2.44c-7.72,-1.92 -9.53,5.07 -2.78,4.1 1.37,-0.2 3.02,-1.77 5.27,-2.19l-3.89 3.41 1.13 5.89c0.22,0.86 1.31,1.28 2.45,1.29 5,0.03 1.84,-6.21 1.02,-9.72 2.33,0.03 4.91,0.23 6,-0.24 1.66,-0.72 1.84,-2.18 -0.39,-3.56 -2.53,-1.57 -6.74,1.71 -10.7,1.76 0.82,-0.25 1.51,-0.49 1.89,-0.74z"/>
   </g>
   <path class="fil1" d="M25.74 10.06c1.13,0 2.04,0.91 2.04,2.03 0,1.12 -0.91,2.03 -2.04,2.03 -1.12,0 -2.03,-0.91 -2.03,-2.03 0,-1.12 0.91,-2.03 2.03,-2.03zm-15.86 25.45l0.88 0 6.45 -18.49 0 18.49 0.87 0 2.38 0 0.88 0 0 -26.43 -0.88 0 -2.38 0 -0.87 0 -6.28 18.51 -7.96 -18.51 -0.88 0 -1.21 0 -0.88 0 0 26.43 0.88 0 1.21 0 0.88 0 0 -16.36 6.91 16.36zm41.97 -17.98l0.88 0 0 1.08 -0.88 0 -3.42 0 0 16.9 -0.88 0 -1.21 0 -0.88 0 0 -16.9 -3.33 0 -0.88 0 0 -1.08 0.88 0 9.72 0zm-13.57 17.98l0.88 0c3.23,0 3.14,-7.53 0.61,-9.5 -1.95,-1.52 -5.72,-0.69 -6.31,-2.14 -1.04,-2.53 -0.04,-5.26 1.46,-5.26l5.2 0 0.88 0 0 -1.08 -0.88 0 -6.83 0 -0.87 0c-2.69,0 -3.87,6.16 -1.11,8.87 0.7,0.68 2.06,0.6 3.45,0.77 2.78,0.32 3.19,1.65 3.25,3.27 0.08,1.83 0.07,3.45 -1.14,3.98l-5.41 0 -0.88 0 0 1.09 0.88 0 6.82 0zm34.85 -17.98l0.88 0c5.61,0 3.88,9.64 0.59,9.66l-1.3 0.06 4.55 8.26 -0.87 0 -2.16 0 -0.88 0 -4.55 -8.59 0.04 -0.42 3.21 -0.03c2.78,-0.23 3.5,-7.91 0.23,-8.26l-3.69 0 0 17.3 -0.87 0 -1.29 0 -0.88 0 0 -17.98 0.88 0 0.86 0 0.43 0 0.44 0 0.43 0 3.95 0zm-10.95 0l0.88 0 0 0.75 -0.88 0 -5.12 0 0 7.45 4.35 0 0.88 0 0 0.76 -0.88 0 -4.35 0 0 8.26 5.12 0 0.88 0 0 0.76 -0.88 0 -5.12 0 -0.88 0 -0.22 0 -0.25 0 -0.02 0 -0.6 0 -0.25 0c-0.45,0 -0.82,-0.37 -0.82,-0.82l0 -16.34c0,-0.46 0.37,-0.82 0.82,-0.82l0.25 0 0.6 0 0.02 0 0.25 0 0.22 0 0.88 0 5.12 0zm-37.04 -1.04l1.21 0 0.88 0 0 19.02 -0.88 0 -1.21 0 -0.88 0 0 -19.02 0.88 0z"/>
  </g>
 </g>
</svg>
